<?xml version="1.0" encoding="utf-8"?>
<!-- Generator: Adobe Illustrator 19.0.0, SVG Export Plug-In . SVG Version: 6.00 Build 0)  -->
<svg version="1.1" id="Layer_1" xmlns="http://www.w3.org/2000/svg" xmlns:xlink="http://www.w3.org/1999/xlink" x="0px" y="0px"
	 viewBox="-125 214.1 360.1 364.9" style="enable-background:new -125 214.1 360.1 364.9;" xml:space="preserve">
<style type="text/css">
	.st0{fill:#FFFFFF;}
</style>
<g id="XMLID_19_">
	<path id="XMLID_174_" class="st0" d="M235.1,542.1c-1.6,2.6-3.9,3.6-7.1,3.5c-17.6-0.1-35.2,0-52.7-0.1c-5.5,0-7.3-1.8-7-7.1
		c0.6-10.2,5.6-17.7,14.4-22.6c1.8-1,2.4-2,2.4-4c-0.1-41.8,0-83.7-0.1-125.5c0-1.5-0.7-3.2-1.6-4.3c-5.3-6.6-5.3-14.9-0.1-21.7
		c1-1.2,1.6-3.1,1.7-4.7c0.2-4.1,0.1-8.2,0.1-12.3c0-6.8,3-11.9,9-15.1c1.7-0.9,2.5-1.9,2.3-3.8c-0.1-1.2-0.1-2.3,0-3.5
		c0.4-4.3-0.1-7.5-4.7-10.2c-6.2-3.6-8.1-12-5.6-18.7c2.5-6.9,9.5-11.4,16.8-10.9c7.3,0.5,13.3,5.8,15,13.2c1.6,6.7-1.6,14.2-8,17.6
		c-2.5,1.3-3.4,2.8-3,5.4c0.1,0.9,0.1,1.9,0,2.8c-0.4,4.1,0,7.2,4.5,9.6c4.8,2.5,6.7,7.6,6.8,13.1c0,2.6,0.1,5.2,0,7.7
		c-0.1,4.3,0.2,8.1,3.1,12c4.4,5.7,3.2,13.5-1.4,19.2c-0.9,1.1-1.6,2.9-1.6,4.3c-0.1,41.8-0.1,83.7-0.1,125.5c0,1.7,0.2,2.9,2.1,3.9
		c7.4,3.9,12.1,10.1,14.2,18.3c0.1,0.4,0.4,0.7,0.7,1.1C235.1,537.4,235.1,539.7,235.1,542.1z M207.4,512.3c0-41.5,0-82.8,0-124.2
		c-4,0-7.7,0-11.5,0c0,41.5,0,82.8,0,124.2C199.9,512.3,203.6,512.3,207.4,512.3z M223.2,534.9c-1.9-6.8-8.1-11.6-15-11.8
		c-4.4-0.2-8.9-0.2-13.3,0c-7,0.3-13.8,5.7-14.7,11.8C194.4,534.9,208.7,534.9,223.2,534.9z M201.3,376.9
		C201.3,376.9,201.3,376.9,201.3,376.9c2.2,0,4.5,0.1,6.7,0c2.9-0.2,5.2-2.8,5.2-5.6c0.1-2.8-2.1-5.6-5-5.8c-4.3-0.3-8.6-0.2-13,0
		c-3.1,0.2-5.1,2.7-5.2,5.6c0,3.1,2.1,5.6,5.3,5.8C197.4,377,199.4,376.9,201.3,376.9z M207.6,354.3c0-4,0.2-7.8,0-11.5
		c-0.2-3.5-2.7-5.7-5.9-5.7c-3.1,0-5.7,2.1-5.9,5.3c-0.2,3.9-0.1,7.8-0.1,11.9C199.8,354.3,203.4,354.3,207.6,354.3z M207.6,297.9
		c0.1-3.1-2.6-5.9-5.7-6c-3.2-0.2-6.2,2.6-6.2,5.8c-0.1,3.1,2.5,5.8,5.6,6C204.6,303.8,207.5,301.2,207.6,297.9z"/>
	<path id="XMLID_146_" class="st0" d="M-125,535c2-4,3.5-8.4,6.1-12c2.2-3,5.8-4.9,8.6-7.5c1-0.9,2-2.3,2-3.4
		c0.1-42.1,0.1-84.1,0-126.2c0-1.3-0.7-2.9-1.6-4c-5.3-6.5-5.3-15,0-21.6c0.9-1.2,1.6-2.8,1.6-4.3c0.2-4.2,0.1-8.4,0.1-12.7
		c0-6.8,3-11.9,9.1-15.1c1.7-0.9,2.4-1.9,2.2-3.8c-0.1-1-0.1-2.1,0-3.2c0.3-4.5,0.1-8-4.9-10.8c-6.2-3.5-7.9-12-5.3-18.7
		c2.6-6.7,9.4-11,16.6-10.6c7.1,0.5,13.3,5.8,15,12.8c1.6,6.8-1.3,14.4-7.6,17.8c-2.9,1.6-3.7,3.4-3.4,6.3c0.1,0.8,0.1,1.6,0,2.5
		c-0.4,4,0.2,7,4.5,9.3c4.5,2.4,6.6,7.1,6.7,12.4c0.1,2.6,0.1,5.2,0,7.7c-0.1,4.6,0.4,8.7,3.3,13.1c6.4,9.6,0,22.7-11.5,24.3
		c-4.6,0.7-9.3,0.5-14.2,0.7c0,41.4,0,82.7,0,124.2c3.8,0,7.5,0,11.8,0c0-1.4,0-2.7,0-4.1c0-33.5,0-67,0-100.5c0-1.1-0.1-2.1,0-3.2
		c0.3-2.9,2.8-5.1,5.5-4.8c2.9,0.3,4.8,1.8,5,4.9c0.1,1.2,0.1,2.3,0.1,3.5c0,34.2,0,68.4,0,102.6c0,2.6,0.6,4.1,3,5.5
		c8.8,5.1,13.6,13,13.9,23.3c0.1,4-1.9,6-6,6c-18.3,0-36.6,0-54.8,0.1c-2.8,0-4.5-1.4-6-3.5C-125,539.7-125,537.4-125,535z
		 M-70,534.8c-0.8-3.6-2.8-6.5-6.1-8.7c-6.3-4.4-24.4-4.5-30.7-0.1c-3,2.1-5.6,4.8-6.4,8.8C-98.6,534.8-84.3,534.8-70,534.8z
		 M-91.7,376.9c2.1,0,4.2,0.1,6.3,0c3.2-0.2,5.4-2.7,5.4-5.8c0-2.9-2.1-5.5-5.1-5.7c-4.3-0.2-8.7-0.2-13,0c-3,0.2-5.1,2.8-5.1,5.7
		c0,3,2.3,5.5,5.5,5.7C-95.7,377-93.7,376.9-91.7,376.9z M-85.6,354.3c0-4.1,0.2-8-0.1-11.9c-0.2-3-2.7-5.1-5.6-5.2
		c-3.3-0.1-5.6,1.6-6,4.7c-0.4,4.1-0.1,8.3-0.1,12.4C-93.3,354.3-89.6,354.3-85.6,354.3z M-85.6,297.8c0-3.1-2.7-5.8-5.8-5.9
		c-3.2-0.1-6.1,2.7-6.1,6c0,3.1,2.7,5.8,5.8,5.8C-88.4,303.8-85.6,301.1-85.6,297.8z"/>
	<path id="XMLID_145_" class="st0" d="M54.4,303.3c-0.5,1.3-1,2.5-1.5,3.8c-4.3,13.1-8.5,26.2-12.8,39.3c-1.5,4.7-2.9,5.7-7.9,5.7
		c-13.8,0-27.7,0-41.5,0c-1.3,0-2.5,0-3.8,0c-0.2,0.3-0.3,0.6-0.5,0.9c0.9,0.9,1.7,1.9,2.6,2.6c11.3,8.3,22.7,16.5,34.1,24.8
		c3.9,2.9,4.4,4.3,2.9,9c-4.3,13.2-8.6,26.5-12.8,39.7c-0.4,1.2-0.7,2.4-1.1,3.6c0.2,0.2,0.5,0.5,0.7,0.7c1.1-0.6,2.3-1,3.3-1.7
		c11.4-8.2,22.8-16.5,34.1-24.7c3.9-2.8,5.4-2.8,9.4,0c11.4,8.2,22.7,16.5,34.1,24.7c0.9,0.7,2.1,1.2,3.1,1.7
		c0.2-0.2,0.5-0.4,0.7-0.6c-0.3-1.2-0.5-2.4-0.9-3.5c-4.2-13-8.4-26-12.7-39c-1.9-5.8-1.5-6.8,3.3-10.3
		c11.2-8.1,22.4-16.2,33.5-24.4c0.9-0.7,1.7-1.6,3.4-3.1c-2.2-0.2-3.3-0.3-4.4-0.3c-6.2,0-12.4,0-18.6,0c-4,0-6.4-2.1-6.4-5.4
		c0-3.3,2.2-5.2,6.5-5.2c6.7,0,13.4-0.1,20,0c6.3,0.1,10.6,3,12.2,8.2c1.6,5.2-0.1,10.1-5.2,13.8c-10.3,7.6-20.6,15.1-31,22.5
		c-2.3,1.6-2.5,3-1.7,5.5c4.1,12.1,8,24.2,11.9,36.3c2.5,7.9-1.3,15.2-9.1,16.1c-3,0.4-6.8-0.8-9.4-2.6
		C78.5,434,68.3,426.3,58,418.8c-0.9-0.7-1.9-1.3-3-2c-11.3,8.2-22.4,16.3-33.6,24.4c-3.1,2.3-6.5,3.7-10.5,2.6
		C4,442,0.2,435.7,2.2,429c3.9-12.7,8.1-25.4,12.3-38c0.8-2.3,0.5-3.5-1.5-4.9C2.5,378.5-8,371-18.3,363.3
		c-7.4-5.4-7.7-15.2-0.5-19.8c2.3-1.5,5.5-2,8.3-2.1c12.5-0.2,25.1-0.2,37.6,0c2.7,0,3.9-0.8,4.7-3.4c3.9-12.4,7.9-24.7,12-37
		c2.3-7,8.7-10.2,15.3-7.9c3.8,1.3,6.2,4.1,7.4,7.9c4.7,14.5,9.4,28.9,14.1,43.3c1.1,3.5-0.2,6.3-3.3,7.3c-2.9,1-5.6-0.5-6.7-4
		c-4.5-13.5-8.8-27.1-13.3-40.6c-0.4-1.4-1.1-2.6-1.6-4C55.1,303.2,54.8,303.2,54.4,303.3z"/>
	<path id="XMLID_144_" class="st0" d="M-33.8,534.9c59.2,0,118.2,0,177.8,0c-1.1-5.1-2.2-10-3.3-15c-9.5-41-19-82-28.4-122.9
		c-0.1-0.5-0.2-0.9-0.3-1.4c-0.6-3.9,0.7-6.3,3.9-7.1c3.1-0.7,5.6,1.2,6.6,5.2c1.3,5.7,2.7,11.4,4,17.1
		c9.8,42.4,19.5,84.7,29.2,127.1c1.2,5-0.9,7.7-6,7.7c-63.2,0-126.3,0-189.5,0c-4.9,0-7-2.8-6-7.5c11.1-48,22.2-96.1,33.3-144.1
		c1-4.3,3.4-6.2,6.7-5.4c3.3,0.9,4.7,3.5,3.7,7.9c-6.1,26.6-12.3,53.3-18.5,79.9c-4.3,18.6-8.6,37.1-12.9,55.7
		C-33.7,532.9-33.7,533.8-33.8,534.9z"/>
	<path id="XMLID_143_" class="st0" d="M49.6,263.9c0-3.4-0.1-6.8,0-10.2c0.1-3.9,2.1-6.1,5.3-6.2c3.3-0.1,5.5,2.3,5.5,6.3
		c0.1,6.8,0.1,13.6,0,20.4c-0.1,4.2-2.1,6.4-5.5,6.3c-3.4,0-5.3-2.2-5.4-6.4C49.6,270.7,49.6,267.3,49.6,263.9z"/>
	<path id="XMLID_142_" class="st0" d="M38.2,287.1c-1,1.3-1.9,3.4-3.5,4c-1.5,0.6-4.3,0.5-5.5-0.5c-4.3-3.7-8.3-7.9-12.2-12.1
		c-2-2.2-1.7-4.8,0.4-6.9c1.9-2,4.5-2.5,6.6-0.6c4.4,4,8.5,8.3,12.6,12.6C37.4,284.3,37.6,285.5,38.2,287.1z"/>
	<path id="XMLID_141_" class="st0" d="M94.9,274.9c-1.1,1.9-1.7,3.4-2.7,4.6c-3.4,3.6-6.9,7-10.4,10.4c-2.5,2.4-5.7,2.5-7.8,0.5
		c-2.3-2.2-2.2-5.4,0.4-8c3.5-3.6,6.9-7.4,10.7-10.5c1.4-1.2,4.1-1.6,5.9-1.1C92.5,271.1,93.5,273.3,94.9,274.9z"/>
</g>
</svg>
