<?xml version="1.0" encoding="utf-8"?>
<!-- Generator: Adobe Illustrator 19.0.0, SVG Export Plug-In . SVG Version: 6.00 Build 0)  -->
<svg version="1.1" id="Layer_1" xmlns="http://www.w3.org/2000/svg" xmlns:xlink="http://www.w3.org/1999/xlink" x="0px" y="0px"
	 viewBox="-125 214.1 360.1 364.9" style="enable-background:new -125 214.1 360.1 364.9;" xml:space="preserve">
<style type="text/css">
	.st0{fill:#FFFFFF;}
</style>
<g id="XMLID_21_">
	<path id="XMLID_269_" class="st0" d="M-125.1,380.3c0.2-0.8,0.6-1.5,0.7-2.3c3.7-16.3,18-28,34.8-28.6c14.8-0.5,27.7,4.7,40.1,12
		c2,1.2,4,2.5,5.9,3.8c3.7,2.5,6,2.6,9-0.5c0.8-0.8,0.8-2.8,0.7-4.2c-1-12.4,0.1-24.6,4.5-36.3c0.9-2.5,2.1-5,3.4-7.3
		c1.8-3.2,4.5-4.2,7.3-2.8c2.9,1.5,3.8,4.4,2.1,7.8c-5.6,10.7-7,22.2-6.7,34.1c0,0.6,0.1,1.1,0.1,1.3c4.5-0.8,8.9-1.4,13.3-2.3
		c0.7-0.1,1.3-1.3,1.7-2.1c2.5-6,4.6-12.2,7.3-18.2c1.7-3.8,5.1-4.8,8-3.1c2.7,1.6,2.9,4.6,1.3,8.3c-2.4,5.7-4.5,11.5-6.6,17.3
		c-0.3,1-0.3,2.5,0.2,3.3c2.7,4.2,5.6,8.3,9,13.2c2.4-2,5.5-3.7,7.5-6.3c7.1-9.2,12.4-19.3,13.7-31.1c2.4-22.1-17.5-35-34.3-27.9
		c-3.7,1.6-6.6,0.4-7.8-2.8c-1.2-3,0.3-5.6,4.2-7.2c20.6-8.5,44.2,4.6,48,26.5c2,11.7-0.7,22.5-5.7,33.6c1.2-0.5,2-0.7,2.7-1.1
		c8.5-4.7,17-9.5,25.5-14.2c9.3-5.2,18-2.7,23.2,6.6c3.2,5.6,6.3,11.2,9.4,16.9c5,9.2,2.6,17.8-6.5,23c-22,12.3-44,24.5-66,36.8
		c-1,0.6-2,1.1-3,2.5c1.3,0,2.6,0,3.9,0c40.6,0,81.1,0,121.7,0c10.6,0,15.5,4.9,15.5,15.5c0,35.9,0,71.7,0,107.6
		c0,13.9-7.6,21.5-21.5,21.5c-57,0-113.9,0-170.9,0c-14.1,0-21.7-7.6-21.7-21.7c0-26.1,0-52.3,0-78.4c0-1.3,0-2.5,0-4.3
		c-1.4,0.7-2.4,1.2-3.4,1.7c-9.6,5.3-19.2,10.7-28.8,16c-10.5,5.9-18.7,3.5-24.7-7.1c-3-5.4-6.1-10.8-9-16.3
		c-4.8-8.7-2.3-17.6,6.4-22.5c8.5-4.8,17-9.5,25.5-14.2c1-0.6,2-1.2,3.5-2.1c-4.1-0.8-7.7-1.4-11.1-2.3
		c-12.1-3.3-22.3-9.2-28.2-20.8c-1.7-3.4-2.7-7.1-4-10.7C-125.1,387.4-125.1,383.8-125.1,380.3z M75.5,562.5c0-40.9,0-81.6,0-122.4
		c-13.2,0-26.3,0-39.5,0c0,1.6,0,2.8,0,4.1c0,13.6,0,27.2,0,40.8c0,4.4-1.9,6.7-5.4,6.6c-3.3-0.1-5.1-2.4-5.1-6.6
		c0-13.7,0-27.4,0-41.1c0-1.3,0-2.5,0-4.1c-7.4,0-14.4-0.1-21.4,0.1c-1.9,0-3.9,0.6-5.6,1.5c-12,6.5-23.9,13.3-36,19.9
		c-2.1,1.1-3,2.4-3,4.9c0.1,28.7,0.1,57.4,0.1,86.1c0,7.7,2.7,10.4,10.3,10.4c17.3,0,34.7,0,52,0c1.1,0,2.2-0.1,3.5-0.2
		c0-1.6,0-2.9,0-4.2c0-14.7,0-29.3,0-44c0-0.7,0-1.4,0-2.1c0.1-3.9,2-6.1,5.3-6.1s5.3,2.2,5.3,6c0,15.5,0,30.9,0,46.4
		c0,1.3,0,2.5,0,3.9C49.3,562.5,62.3,562.5,75.5,562.5z M86.7,439.8c0,41.1,0,81.8,0,122.5c0.5,0.1,0.8,0.3,1.2,0.3
		c18.7,0,37.5,0.1,56.2,0c5.2,0,8-3.3,8-8.6c0-36.8,0-73.6,0.1-110.4c0-3-1.1-3.9-3.9-3.9c-7.4,0.1-14.8,0-22.1,0
		C113.1,439.8,100.1,439.8,86.7,439.8z M-55.9,410.8c-2.2-4.4-4.6-8-5.8-12c-1-3.4-2.8-4.7-5.9-5.2c-5.3-0.9-10.6-2-15.9-2.8
		c-3.9-0.6-6.1-2.8-5.7-6.2c0.4-3.2,2.9-4.8,6.7-4.5c1.7,0.2,3.5,0.3,5.2,0.6c5.4,1,10.7,2.1,15.1,3c4-3.9,7.5-7.3,11.1-10.7
		c-7.7-5.2-16.1-10-25.6-11.7c-5.3-1-11-1.4-16.3-0.6c-14.5,2-24,15.8-20.8,30c2.3,10.3,9.6,16.3,19.1,19.8
		c10.2,3.8,20.8,4.3,31.5,3C-60.8,413.3-58.5,411.8-55.9,410.8z M30.9,410.5c0.6-0.1,0.8,0,1-0.1c18.1-10,36.2-20.1,54.2-30.2
		c3.4-1.9,4-4.3,2-8c-3.1-5.8-6.3-11.5-9.5-17.2c-2.3-4-4.6-4.6-8.7-2.4C56.9,359.8,44,367,31,374.3c-5.1,2.8-10.2,5.7-15.5,8.6
		C20.7,392.3,25.8,401.4,30.9,410.5z M-50.6,419.8c-18.7,10.4-37.2,20.7-55.6,31.1c-2.8,1.6-3.3,4.1-1.6,7.3
		c3.1,5.8,6.3,11.5,9.5,17.2c2.5,4.4,4.7,5,9.2,2.5c11.4-6.3,22.7-12.6,34-18.9c6.6-3.7,13.2-7.4,20-11.2
		C-40.3,438.3-45.4,429.1-50.6,419.8z M-25.7,442.5c15.9-8.9,31.6-17.7,47.4-26.5c-5.3-9.5-10.4-18.6-15.6-27.9
		c-15.9,8.9-31.5,17.6-47.5,26.4C-36.1,423.9-31,433.1-25.7,442.5z M1,378.7c-1.8-3.1-3.2-5.9-4.9-8.6c-2.7-4.2-7.6-5.7-11.9-3.4
		c-10.7,5.7-21.3,11.7-31.8,17.7c-3.9,2.2-5.6,6.6-4.1,10.6c1.3,3.5,3.4,6.7,5.3,10.2C-30.5,396.3-14.9,387.6,1,378.7z"/>
	<path id="XMLID_266_" class="st0" d="M235,379.6c-3.5,4.2-6.8,8.6-10.4,12.7c-1.9,2.1-2.6,4.2-2.3,7c0.5,4.2,0.7,8.4,1.1,12.6
		c0.7,6.8-3.7,10.2-10.1,7.9c-4.3-1.6-8.4-3.6-12.7-5.1c-1.6-0.5-3.7-0.6-5.3,0c-4.2,1.4-8.2,3.4-12.3,5c-6.6,2.5-10.9-0.6-10.5-7.7
		c0.2-3.5,0.2-7.1,0.9-10.5c0.9-4.2-0.1-7.4-3.1-10.4c-2.6-2.6-4.7-5.5-7-8.3c-4.3-5.3-2.6-10.4,4-12.2c4.4-1.1,8.9-2.1,13.2-3.4
		c1.4-0.4,2.9-1.5,3.7-2.7c2.5-3.8,4.7-7.8,7.1-11.7c3.8-6,9.3-6,13.1-0.1c2.3,3.6,4.6,7.3,6.6,11.2c1.2,2.2,2.8,3.2,5.1,3.7
		c3.9,0.9,7.7,2,11.6,2.8c3.2,0.7,5.6,2.1,7.2,5C235,376.8,235,378.2,235,379.6z M174.5,379.8c9.6,7.5,11.8,16.9,8.7,27.8
		c5.3-1.7,9.9-4.3,14.6-4.3c4.8,0,9.5,2.6,14.1,3.9c0-4.8-1.1-10.1,0.3-14.7c1.5-4.6,5.5-8.5,8.9-13.3c-11.5-0.1-19.1-5.7-23.1-16.8
		C194,373.4,186.4,379.1,174.5,379.8z"/>
	<path id="XMLID_265_" class="st0" d="M235,274.8c-1.7,1.2-3.2,2.9-5,3.4c-26.9,7.3-43,25.6-51.9,51.1c-0.3,0.8-0.4,1.6-0.7,2.4
		c-1.2,3.3-3.9,4.9-6.7,4c-2.9-0.9-4.4-3.7-3.4-7c7.5-24.8,21.8-44,45.6-55.4c4.1-2,8.5-3.2,12.8-4.8c3.6-1.4,6.8-1,9.4,2.1
		C235,272,235,273.4,235,274.8z"/>
	<path id="XMLID_262_" class="st0" d="M120.3,290.8c0.2,7-3.9,10.1-10.2,7.7c-4.3-1.6-8.4-3.7-12.6-5.1c-1.6-0.5-3.7-0.5-5.2,0
		c-4.3,1.5-8.4,3.5-12.6,5.1c-6.5,2.4-10.9-1.1-10.2-8.1c0.2-1.9-0.1-3.8,0.4-5.6c2.3-8.1-0.8-14.2-6.5-19.6c-1.4-1.4-2.6-3-3.8-4.6
		c-3.4-4.5-1.9-9.4,3.6-11c4.7-1.4,9.5-2.3,14.2-3.7c1.5-0.5,3-1.6,3.9-2.9c2.5-3.7,4.6-7.6,6.9-11.4c3.9-6.1,9.4-6.2,13.2,0
		c2.4,3.9,4.6,7.9,7.1,11.7c0.8,1.2,2.3,2.3,3.7,2.7c4.6,1.4,9.3,2.3,13.9,3.6c5.9,1.7,7.4,6.6,3.7,11.4c-2.9,3.7-5.8,7.3-9,10.8
		c-1.7,1.8-2.1,3.7-1.8,6.1C119.6,282.2,119.9,286.7,120.3,290.8z M94.7,241.3c-3.9,11.2-11.7,16.4-23,16.7c3.4,4.8,7.3,8.5,8.8,13
		c1.4,4.5,0.3,9.9,0.3,14.8c4.7-1.4,9.3-3.8,13.9-3.8c4.7,0,9.4,2.4,15,4.1c-3.9-11.2-0.3-20,8.2-27.7
		C106.3,257.8,98.9,252.1,94.7,241.3z"/>
	<path id="XMLID_217_" class="st0" d="M178.8,219.5c14.4,0.1,26.4,12,26.5,26.4c0,14.5-12.3,26.8-26.7,26.5
		c-14.5-0.2-26.4-12.3-26.3-26.6C152.3,231.4,164.4,219.5,178.8,219.5z M194.4,246.1c0-8.8-6.7-15.6-15.4-15.7
		c-9-0.1-15.9,6.6-15.9,15.5c0,8.8,6.6,15.6,15.4,15.7C187.4,261.7,194.3,255,194.4,246.1z"/>
	<path id="XMLID_216_" class="st0" d="M131.8,335.4c-0.3-6.9-0.7-15.3-1.1-23.8c-0.2-3.8,1.6-6.3,4.8-6.5c3.2-0.2,5.6,1.9,5.9,5.6
		c1.5,20.8,1.5,41.6-2.8,62.2c-2.6,12.2-6.7,23.9-14.8,33.7c-1.7,2-3.6,3.3-6.4,2.6c-3.5-0.9-5.2-5.2-2.8-8.1
		c12.6-15.2,14.9-33.6,16.5-52.3C131.3,344.8,131.5,340.9,131.8,335.4z"/>
</g>
</svg>
