<?xml version="1.0" encoding="utf-8"?>
<!-- Generator: Adobe Illustrator 19.0.0, SVG Export Plug-In . SVG Version: 6.00 Build 0)  -->
<svg version="1.1" id="Layer_1" xmlns="http://www.w3.org/2000/svg" xmlns:xlink="http://www.w3.org/1999/xlink" x="0px" y="0px"
	 viewBox="-125 214 360.1 366" style="enable-background:new -125 214 360.1 366;" xml:space="preserve">
<style type="text/css">
	.st0{fill:#FFFFFF;}
</style>
<g id="XMLID_14_">
	<path id="XMLID_170_" class="st0" d="M-94.8,412c0,40.2,0,79.9,0,119.8c51.9,0,103.6,0,155.8,0c0-1.3,0-2.6,0-3.9
		c0-17.9,0-35.7,0-53.6c0-4.7,2.7-7.5,6.7-7c3.4,0.4,5.3,2.8,5.3,7c0,17.7,0,35.5,0,53.2c0,1.4,0,2.7,0,4.5c3.9,0,7.6,0,11.3,0
		c4.5,0.1,6.7,2.2,6.6,6.7c-0.1,5.9,0.3,11.8-0.8,17.5c-2.6,13.9-14.7,23.7-28.8,23.7c-52.2,0-104.5,0.1-156.7,0
		c-16.3,0-29.5-13.3-29.6-29.6c0-3.9,0-7.8,0-11.6c0.1-4.5,2.1-6.7,6.6-6.7c3.6-0.1,7.2,0,11.4,0c0-1.6,0-3.1,0-4.5
		c0-39.7,0-79.5,0-119.2c0-6.5,1.7-8.2,8.1-8.2c17.7,0,35.5,0,53.2,0c3.5,0,5.8,1.7,6.4,5c0.6,3.1-1,5.4-3.8,6.6
		c-1.2,0.5-2.7,0.4-4.1,0.4c-14.5,0-29,0-43.5,0C-91.8,412-93.2,412-94.8,412z M78.8,544.2c-64,0-127.8,0-191.8,0
		c0,2.4-0.1,4.5,0,6.6c0.5,7.6,5.4,14.5,12.5,16.1c5.6,1.2,11.5,1,17.3,1.5c0.8-10.2,1.8-12.4,5.9-12.3c8.2,0.2,5.8,7,6.6,11.7
		c36,0,71.8,0,107.7,0c0.5-4.7-1.6-11.3,5.7-11.6c8.2-0.3,5.8,6.9,6.5,11.5C70.6,570.1,80.3,562.5,78.8,544.2z"/>
	<path id="XMLID_166_" class="st0" d="M-15.8,490.6c-11.5,7.7-22.7,9-34-0.7c-1.9,1.1-3.9,2.2-6,3.3c-9.2,4.8-19.8,1.9-24.7-6.8
		c-4.9-8.7-2-19.2,7-24.6c0.7-0.5,1.5-0.9,2.3-1.3c2.4-1,3.2-2.3,2.9-5.4c-1.2-9.6,2.5-17.3,10.4-22.9c1.2-0.9,2.5-1.6,3.9-2.3
		C-32,419.1-14.1,402.4,4.7,387c15.7-12.9,31.4-25.9,47.1-38.8c4.3-3.5,7.9-2.8,10.8,2c1.7,2.9,3.5,5.8,5.1,8.8
		c1.9,3.6,1,7.1-2.1,8.8c-3,1.7-6.1,0.7-8.3-2.6c-0.7-1.1-1.4-2.3-2.4-3.8C29.8,382,5,402.4-20.1,423.2c1.6,2.8,3.1,5.6,4.7,8.4
		c3.4,5.9,6.9,11.8,10.3,17.8c2,3.5,1.1,7.1-1.9,8.8c-3.1,1.8-6.4,0.8-8.6-2.8c-4.9-8.3-9.6-16.6-14.8-25.4
		c-7.6,4.6-15.3,8.7-22.4,13.7c-4.6,3.2-5.3,9.2-2.5,14.2c3.8,7,7.8,13.9,12,20.7c3.5,5.8,10.3,8,15.9,4.3
		c24.9-16.5,53.4-24.4,80.7-35c13.9-5.4,28-10.6,42.3-16c-2.7-4.7-5.2-9.2-7.8-13.7c-6-10.4-12-20.7-18-31.1c-2.3-4-1.4-7.6,2-9.3
		c2.9-1.5,6.2-0.6,8.1,2.6c10,17.1,19.9,34.3,29.7,51.6c2.3,4,0.5,7.4-4.4,9.2c-14,5.3-28,10.5-42,15.8
		c-15.4,5.8-30.8,11.6-46.5,17.5c3.7,6.5,7.5,12.8,10.9,19.2c5.3,9.8,1,21.6-9.1,25.5c-8.4,3.3-17.4,0.2-22.3-7.9
		C-7.9,504.5-11.7,497.7-15.8,490.6z M-5.3,484.7c4.2,7.2,7.9,13.9,11.9,20.5c1.8,3,5.3,3.8,8.1,2.3c2.6-1.4,3.9-4.6,2.4-7.4
		c-3.8-7.1-8-14-12.2-21.3C1.4,480.9-1.8,482.7-5.3,484.7z M-62.8,469.5c-3.7,2.3-8.3,3.3-8,8.3c0.1,1.7,1.7,4,3.3,4.9
		c4.1,2.2,7.1-1,10.6-3.1C-58.9,476.1-60.8,473-62.8,469.5z"/>
	<path id="XMLID_165_" class="st0" d="M235,274.4c0,11.7,0,23.5,0,35.2c0,10.7-7.7,18.3-18.5,18.4c-23.7,0-47.5,0-71.2,0
		c-10.5,0-18.2-7.7-18.2-18.2c0-11.5,0-23,0-34.5c0-4.7,2.2-7.3,6.1-7.3c3.7,0.1,5.9,2.6,5.9,7.1c0,11,0,22,0,33
		c0,5.7,2.2,7.9,8,7.9c22.7,0,45.5,0,68.2,0c5.5,0,7.8-2.2,7.8-7.7c0-22.9,0-45.7,0-68.6c0-5.5-2.2-7.7-7.8-7.7
		c-22.9,0-45.7,0-68.6,0c-5.3,0-7.5,2.2-7.6,7.5c0,3.4,0,6.8,0,10.1c-0.1,3.9-2.4,6.3-5.9,6.4c-3.7,0.1-6-2.4-6.1-6.5
		c-0.1-4-0.1-8,0-12c0.2-9.5,7.9-17.4,17.5-17.4c24.2-0.1,48.5-0.1,72.7,0c9.8,0,17.6,7.8,17.7,17.6
		C235.1,249.9,235,262.1,235,274.4z"/>
	<path id="XMLID_164_" class="st0" d="M181.2,406c11.7,0,23.5,0,35.2,0c11,0,18.5,7.6,18.5,18.7c0,11.4,0,22.7,0,34.1
		c0,4.6-2.1,7.1-5.8,7.2c-3.9,0.1-6.1-2.5-6.1-7.2c0-10.9,0-21.7,0-32.6c0-6-2.1-8.1-8.1-8.1c-22.6,0-45.2,0-67.9,0
		c-6,0-8.1,2.1-8.1,8.2c0,22.6,0,45.2,0,67.9c0,5.8,2.1,8,7.9,8c22.7,0,45.5,0,68.2,0c5.7,0,7.9-2.2,7.9-8c0-3.4-0.1-6.8,0-10.1
		c0.1-3.6,2.6-5.9,5.9-5.9c3.4,0,5.9,2.3,6,5.9c0.1,4.6,0.2,9.3,0,13.9c-0.4,8.4-8,16.1-16.4,16.1c-25,0.2-50,0.2-75,0
		c-8.5-0.1-16.4-8-16.4-16.5c-0.2-24.9-0.2-49.7,0-74.6c0.1-9,8.2-16.7,17.4-16.7C156.7,405.9,169,406,181.2,406z"/>
	<path id="XMLID_161_" class="st0" d="M-125,327.8c0-15.4,0-30.7,0-46.1c0-5.8,1.9-7.7,7.6-7.7c23,0,46,0,69,0c5.4,0,7.4,2,7.4,7.5
		c0,31,0,62,0,93c0,5.5-2,7.5-7.4,7.5c-23.1,0-46.2,0-69.4,0c-5.2,0-7.2-2.1-7.2-7.3C-125,359-125,343.4-125,327.8z M-53.2,369.8
		c0-28.1,0-55.9,0-83.6c-20.1,0-39.8,0-59.6,0c0,28,0,55.7,0,83.6C-92.9,369.8-73.2,369.8-53.2,369.8z"/>
	<path id="XMLID_158_" class="st0" d="M25.3,214c30,0.1,53.8,24.3,53.7,54.6C78.9,298.2,54.5,322,24.4,322
		c-29.5-0.1-53.4-24.4-53.3-54.2C-28.9,237.8-4.8,213.9,25.3,214z M67,268.1c0.1-22.8-18.7-41.9-41.4-42.2
		c-23.2-0.3-42.3,18.6-42.5,41.8c-0.2,22.8,18.9,42.1,41.8,42.2C47.9,310,66.9,291.2,67,268.1z"/>
	<path id="XMLID_155_" class="st0" d="M205,459.9c0,13.4-10.6,24-23.9,24.1c-13.4,0-24.1-10.6-24-23.9c0-13.4,10.6-24,23.9-24.1
		C194.4,436,205,446.5,205,459.9z M193,460c0-6.4-5.7-12-12-12c-6.4,0-12,5.6-12,12c0,6.4,5.6,12,12,12
		C187.4,471.9,193,466.4,193,460z"/>
	<path id="XMLID_154_" class="st0" d="M169,280.3c-10.1-1-12.2-2.2-12-6.6c0.2-4.3,2.4-5.4,12-5.9c0-2,0-4.1,0-6.1
		c0.1-9.8,7.8-17.6,17.6-17.7c4-0.1,8-0.1,12,0c3.9,0.1,6.3,2.3,6.4,5.8c0.1,3.6-2.4,6.1-6.5,6.1c-3.1,0.1-6.2,0-9.4,0
		c-6,0-8.1,2.1-8.2,8.1c0,1.1,0,2.2,0,4c2,0,4-0.1,5.9,0c3.8,0.2,6.2,2.6,6.1,6.1c-0.1,3.3-2.4,5.7-6,5.8c-1.8,0.1-3.7,0-6,0
		c0,5.7,0,11.2,0,16.7c0,4.8-2.2,7.4-6,7.3c-3.9,0-5.9-2.6-5.9-7.4C169,291.2,169,285.8,169,280.3z"/>
	<path id="XMLID_153_" class="st0" d="M122.7,394c-5.4,0-8-2-8.4-5.3c-0.4-3.3,1.8-5.9,5.6-6.7c9.5-2,19-4,28.5-5.8
		c5.3-1,8.6,1.4,8.6,5.9c0,2.9-1.4,5.1-4,5.7C142.5,390.1,131.9,392.1,122.7,394z"/>
	<path id="XMLID_152_" class="st0" d="M134,345.9c-1.6,2.1-2.5,4.1-4,5.3c-7.5,5.8-15.1,11.4-22.7,17.1c-3.5,2.6-7.1,2.1-9.2-0.8
		c-2-2.8-1.4-6.3,1.9-8.8c7.6-5.8,15.2-11.7,23.1-17.1c1.7-1.2,4.8-1.2,6.8-0.6C131.5,341.5,132.4,343.9,134,345.9z"/>
	<path id="XMLID_151_" class="st0" d="M86.2,345.9c-5.7,0.2-9.1-5-6.4-8.8c6-8.6,12.3-16.9,18.7-25.1c2-2.6,5.6-2.6,8.1-0.8
		c2.5,1.9,3.3,5.4,1.4,8c-6,8.3-12.1,16.4-18.4,24.5C88.7,344.9,86.9,345.5,86.2,345.9z"/>
	<path id="XMLID_138_" class="st0" d="M-82.9,334c-3.9,0-7.8,0.1-11.6,0c-3.9-0.1-6.3-2.3-6.4-5.8c-0.1-3.7,2.4-6.1,6.5-6.1
		c7.7-0.1,15.5-0.1,23.2,0c3.8,0,6.2,2.5,6.2,6c0,3.5-2.5,5.9-6.3,5.9C-75.2,334-79.1,334-82.9,334z"/>
	<path id="XMLID_137_" class="st0" d="M-83.2,358c-3.9,0-7.8,0.1-11.6,0c-3.8-0.1-6.2-2.6-6.1-6.1c0.1-3.3,2.4-5.8,6-5.8
		c8-0.1,16-0.1,24,0c3.6,0,5.9,2.5,6,5.9c0,3.5-2.4,6-6.2,6C-75.2,358-79.2,358-83.2,358z"/>
	<path id="XMLID_136_" class="st0" d="M-76.7,298c2.1,0,4.3-0.1,6.4,0c3.2,0.3,5.5,2.9,5.3,6.1c-0.2,3.3-2,5.5-5.3,5.7
		c-4.5,0.3-9,0.2-13.5,0c-3-0.1-5.1-2.8-5.2-5.9c0-3.2,2.2-5.7,5.5-6c0.2,0,0.5,0,0.7,0C-80.7,298-78.7,298-76.7,298
		C-76.7,298-76.7,298-76.7,298z"/>
	<path id="XMLID_133_" class="st0" d="M7,268c0-5.6,0-11.2,0-16.9c0-6,4.1-8.8,9.4-6.2c11.5,5.7,23.1,11.3,34.4,17.3
		c1.8,1,3.8,3.7,3.8,5.7c0,1.9-1.9,4.7-3.8,5.7c-11.5,6.1-23.1,11.8-34.7,17.5c-5,2.4-9-0.3-9.1-5.9C7,279.5,7,273.8,7,268z
		 M35.4,268c-5.8-2.9-10.9-5.4-16.1-8c0,5.6,0,10.6,0,16.1C24.7,273.4,29.6,270.9,35.4,268z"/>
</g>
</svg>
