<?xml version="1.0" encoding="utf-8"?>
<!-- Generator: Adobe Illustrator 19.0.0, SVG Export Plug-In . SVG Version: 6.00 Build 0)  -->
<svg version="1.1" id="Layer_1" xmlns="http://www.w3.org/2000/svg" xmlns:xlink="http://www.w3.org/1999/xlink" x="0px" y="0px"
	 viewBox="-125 214.1 360.1 364.9" style="enable-background:new -125 214.1 360.1 364.9;" xml:space="preserve">
<style type="text/css">
	.st0{fill:#FFFFFF;}
	.st1{fill:none;}
	.st2{fill:#4E459F;}
</style>
<g>
	<g id="XMLID_20_">
		<path id="XMLID_60_" class="st0" d="M234.9,435.3c-0.4,3.9-1,7.8-1.3,11.8c-1.1,14.7-2,29.4-3,44.2c0,0.1,0,0.2,0,0.4
			c-0.3,5-2.5,7.8-5.9,7.6c-3.7-0.3-5.2-3.3-4.8-8.6c1.1-14.5,2.1-29,3.1-43.5c0.4-5.6,0.8-11.2,1.3-16.8c0.4-4.5-1.2-6.3-5.7-6.3
			c-9.1,0-18.3,0-27.9,0c0,2.6-0.2,5.1,0.1,7.4c0.1,0.9,1.6,1.8,2.6,2.3c7.6,4,11.5,12.2,9.6,20.3c-1.9,8-9,13.7-17.3,14
			s-15.6-5.3-17.8-13.6c-2.1-7.6,1.1-16.2,8.3-19.8c3.6-1.8,4.2-4,3.9-7.4c-0.1-0.9,0-1.8,0-3c-28.2,0-56.1,0-84.5,0
			c0,2.3-0.3,4.7,0.1,6.9c0.2,1,1.6,2,2.7,2.6c6.7,3.8,10.3,9.6,9.8,17.3c-0.5,7.6-4.6,12.9-11.6,15.7c-8.5,3.4-18.3-0.5-22.5-8.6
			c-4.3-8.3-1.5-18.4,6.4-23.5c4.9-3.2,5.3-4.1,3.9-10.7c-9.6,0-19.4-0.1-29.1,0.1c-3,0.1-4.2,2.3-4,5.2c0.5,7.9,1.1,15.9,1.6,23.8
			c1.1,15,2.2,29.9,3.3,44.8c1.4,19,2.7,38.1,4.2,57.1c0.3,3.9,2.2,5.6,6.1,5.8c1.6,0.1,3.3,0,4.9,0c44.9,0,89.8,0,134.6,0
			c7.8,0,8.7-0.9,9.3-8.4c0.9-12.3,1.8-24.5,2.7-36.8c0.3-3.9,2.6-6.3,5.8-6.1c3.1,0.2,5.1,2.7,4.8,6.5c-0.9,13.1-1.7,26.2-2.8,39.2
			c-0.9,10.6-7.4,16.4-18.1,16.4c-23.1,0-46.2,0-69.3,0c-22.6,0-45.2,0-67.9,0c-14.3,0-19.3-4.2-21.5-19c-1.4,0-2.8,0-4.3,0
			c-48.9,0-97.7-0.2-146.6,0.1c-11.4,0.1-19.5-3.6-23.4-14.8c0-72.2,0-144.4,0-216.6c1-2.1,1.8-4.3,3.1-6.2
			c3.8-5.8,9.4-8.3,16.1-8.4c8.4-0.1,16.9,0,25.3,0c1.3,0,2.5,0,3.8,0c0.3-1.8,0-3.6,0.9-4.7c1.3-1.6,3.1-3.3,4.9-3.7
			c2.5-0.5,4.4,1.3,5,3.9c0.3,1.5,0.3,3,0.3,4.5c0,8.5,0,17,0,25.8c3.3,0,6.1,0,9.5,0c0-1.4,0-2.7,0-4.1c0-21.7,0.2-43.4-0.1-65
			c-0.2-14,10.3-22.1,21.6-21.8c21.1,0.5,42.2,0.1,63.3,0.2c12.7,0,20.7,8,20.8,20.9c0.1,21.2,0,42.4,0,63.6c0,2,0,3.9,0,6.2
			c3.3,0,6.3,0,9.5,0c0.1-1.2,0.1-2.4,0.2-3.5c0-23.6,0-47.1,0-70.7c0-15.9-10.5-26.4-26.4-26.4c-24,0-48.1,0-72.1,0
			c-15.7,0-26.2,10.5-26.3,26.2c-0.1,7.1,0,14.3,0,21.4c0,1.1,0,2.1-0.1,3.2c-0.5,3.1-2.1,4.9-5.4,4.9c-3.1,0-5.2-1.9-5.1-4.7
			c0.1-11.6-0.6-23.3,1.4-34.6c2.7-15.9,17.6-26.8,33.8-26.8c25.3-0.1,50.6-0.1,76,0c18.5,0.1,34.2,14.6,34.8,33.1
			c0.6,15.8,0.2,31.6,0.3,47.5c0,1.4,0,2.8,0,4.6c1.6,0,2.8,0,4.1,0c8.3,0,16.6,0,25,0c12,0.1,19.8,7.9,19.9,19.8c0,6.3,0,12.7,0,19
			c0,4.7-1.9,7.2-5.2,7.3c-3.5,0.1-5.4-2.5-5.4-7.4c0-6.1,0-12.2,0-18.3c-0.1-6.9-2.7-9.6-9.6-9.6c-9.4,0-18.7,0-28.6,0
			c0,5.2,0,10,0,14.9c0,8.6-2.6,11.2-11.1,11.2c-3.6,0-7.3,0.1-10.9,0c-5.9-0.2-9.1-3.4-9.1-9.3c-0.1-5.5,0-11,0-16.6
			c-28.1,0-55.8,0-84.1,0c0,5,0,9.9,0,14.7c0,8.4-2.7,11.2-11.1,11.2c-3.6,0-7.3,0.1-10.9,0c-5.9-0.2-9.1-3.4-9.2-9.3
			c-0.1-5.5,0-11,0-16.8c-7,0-13.7,0-20.3,0c-3.3,0-6.6-0.1-9.8,0c-4.7,0.2-7.6,3-7.9,7.7c-0.1,0.8,0,1.6,0,2.5
			c0,59.7,0,119.3,0,179c0,1.1,0,2.3,0,3.6c53.8,0,107.3,0,161,0c-0.7-10.8-1.4-21.4-2.2-32c-1.1-16.1-2.4-32.2-3.4-48.4
			c-0.6-10,5.5-16.5,15.6-16.7c8.1-0.2,16.2,0,24.3,0c1.3,0,2.5,0,4.2,0c-0.2-18.7,6.6-33.9,21.3-45.1c10-7.7,21.6-11.2,34.2-10.6
			c29.8,1.6,51.8,26.7,50.6,55.5c1.2,0.1,2.5,0.2,3.7,0.2c7,0,14.1,0.3,21.1-0.1c9.3-0.5,15.9,2.7,19.3,11.6
			C234.9,428.2,234.9,431.8,234.9,435.3z M38.7,306.6c0-15.6,0.1-31-0.1-46.3c-0.1-4.4-4-7.8-8.8-7.8c-22-0.1-44-0.1-66,0
			c-5.3,0-9,3.5-9,8.8c-0.1,14.9,0,29.7,0,44.6c0,0.2,0.2,0.4,0.4,0.8C-17.1,306.6,10.5,306.6,38.7,306.6z M-114.7,521.2
			c0,3.5,0,6.7,0,9.8c0,8.3,2.4,10.7,10.6,10.7c49.5,0,99.1,0,148.6,0c1.2,0,2.5-0.1,4-0.2c-0.5-7-1-13.6-1.5-20.4
			C-6.9,521.2-60.6,521.2-114.7,521.2z M180.1,413c0-17.1-6.5-30.5-21.1-39c-15.1-8.8-30.6-8.2-45,1.6c-13,8.8-18.9,21.5-18.4,37.6
			c3.4,0,6.4,0,9.4,0c0.9,0,1.8-0.2,3.1-0.3c0-1.4,0-2.7,0-3.9c0-4.9-0.1-9.8,0.1-14.8c0.1-3.1,2.2-5.2,5-5.3c2.9-0.1,5.3,2,5.6,5.2
			c0.1,1.3,0,2.6,0,3.9c0,5,0,10,0,15.1C139.4,413,159.5,413,180.1,413z M85.3,444.6c-3.2,3.5-3.3,7.9-0.2,10.7
			c2.9,2.7,7.6,2.5,10.4-0.4c3-3.2,2.7-7.2-0.7-10.3C90.9,447.4,89.6,447.4,85.3,444.6z M180.5,444.6c-3.3,3.6-3.4,7.7-0.1,10.7
			c2.9,2.7,7.6,2.6,10.4-0.3c2.9-3.1,2.7-7.2-0.6-10.4C186,447.4,184.9,447.4,180.5,444.6z"/>
	</g>
	<path id="XMLID_180_" class="st0" d="M-55.5,395c0.9-5.5,1.9-11,2.7-16.4c2.7-17.5,5.2-35.1,8-52.6c0.3-2.1,0-3.6-1.6-5
		c-2.1-1.9-4-3.9-5.9-6c-2.1-2.3-2.2-5.1-0.2-7c1.9-1.9,4.8-1.8,7,0.4c2.2,2.2,4.2,4.5,6.5,6.5c1,0.8,2.5,1.6,3.7,1.5
		c12.1-0.7,24.1-1.5,36.2-2.3c12.6-0.8,25.2-1.6,37.8-2.5c2.8-0.2,4.7,0.8,6.6,2.8c38.9,40.5,77.9,80.9,116.8,121.3
		c0.7,0.7,1.3,1.5,2,2.2c5.6-4.3,11.5-6.9,18.2-7.8c18.5-2.3,35.7,10.1,39.1,28.4c0.1,0.7,0.4,1.4,0.6,2c0,3.1,0,6.1,0,9.2
		c-0.7,2.4-1.3,4.9-2.1,7.2c-6.6,18.7-27.4,28.2-45.8,21c-2.2-0.9-3.4-0.4-4.9,1.1c-20.6,20-41.3,39.9-62,59.8
		c-3.8,3.7-5.8,3.6-9.5-0.2C47.4,506.4-2.9,454.2-53.2,401.9c-0.8-0.8-1.5-1.7-2.3-2.6C-55.5,397.9-55.5,396.4-55.5,395z
		 M-34.2,407.9c0.6,0.7,0.9,1.1,1.3,1.5c34.8,36.2,69.6,72.3,104.4,108.4c0.7,0.8,2.2,1.3,3.3,1.3c19.3,0.1,38.6,0.1,57.9,0
		c1.2,0,2.6-0.7,3.5-1.5c5.8-5.4,11.6-10.9,17.2-16.5c3.2-3.2,6.1-6.6,9.4-10.3c-0.1-0.1-0.9-0.4-1.4-1
		c-11.1-11.2-13.4-28.9-5.2-42.4c1.2-2,1.1-3.1-0.5-4.7c-35.6-37-71.2-74-106.9-111c-0.6-0.6-1.3-1.2-2-1.9
		C19.8,355.9-7.1,381.8-34.2,407.9z M-28.7,325.6c1.6,1.7,3,3,4.2,4.4c1.3,1.6,2.5,2.1,4.8,1.5c10.2-2.9,19.8,7,17,17.2
		c-2.2,7.8-10,12.2-17.7,10c-7.6-2.2-11.8-10.1-9.5-17.8c0.3-0.9,0.4-2.3-0.1-2.9c-1.7-2.1-3.7-3.9-5.8-5.9c-0.2,0.8-0.5,1.4-0.6,2
		c-3,20.1-6,40.3-9,60.4c-0.1,0.7,0,1.7,0.4,2.2c1.2,1.5,2.7,2.9,4.2,4.5c27.1-26.1,54.1-52.1,80.9-78c-1.1-2.6-3.1-1.9-4.8-1.8
		c-17,1.1-34,2.2-51.1,3.3C-19.9,324.9-24,325.2-28.7,325.6z M212.3,465.2c0-14.3-11.3-25.8-25.7-25.8c-14.2,0-25.9,11.5-25.9,25.7
		c0,14.1,11.7,25.9,25.8,25.9C200.8,490.9,212.3,479.5,212.3,465.2z M124.5,529c-14.3,0-28,0-42.2,0c7,7.2,13.6,14.1,20.3,21.1
		C109.9,543,117.1,536.2,124.5,529z M-16.6,349.7c2.6,0,4.6-1.8,4.6-4.5c0-2.6-1.9-4.7-4.5-4.7c-2.5,0-4.7,2.1-4.7,4.5
		C-21.2,347.5-19.2,349.6-16.6,349.7z"/>
	<path class="st1" d="M-16.6,336.4c-4.8,0-8.6,3.8-8.6,8.6c0,4.8,3.9,8.6,8.6,8.6c4.7,0,8.6-3.8,8.6-8.6
		C-8,340.2-11.9,336.4-16.6,336.4z"/>
	<path class="st0" d="M56.7,404c1.3-0.4,2.8-2.1,3.2-3.4c1-3.6-2.1-5.2-4.4-7.5c-2.1,2.3-4.1,4.5-6.2,6.7
		C51.4,401.6,52.9,405.2,56.7,404z"/>
	<path class="st0" d="M19.2,382.3c-2.2,2.4-4.2,4.6-6.3,6.9c2.1,1.9,3.6,5.2,7.3,4.2c1.3-0.4,2.9-1.8,3.3-3.1
		C24.7,386.6,21.5,384.9,19.2,382.3z"/>
	<path class="st0" d="M74.4,438.7c1.3-2.8,2.6-5.6,4.3-9c-3.6,1.5-6.5,2.8-9.5,4.1C70.9,435.5,72.6,437,74.4,438.7z"/>
	<path class="st0" d="M33.9,380.3c1.3-0.4,2.8-1.9,3.2-3.2c1.1-3.6-2.1-5.3-4.3-7.7c-2.1,2.3-4,4.6-6.1,6.9
		C28.4,378.1,30,381.4,33.9,380.3z"/>
	<path class="st0" d="M113.8,493.7c5.7,5.8,14.5,5.8,20,0.1c5.3-5.5,5.3-14.2-0.1-19.3C127.2,480.9,120.6,487.2,113.8,493.7z"/>
	<path class="st0" d="M162.9,442.2L40.1,314.9l-78.4,6.3l-13.8,77.5L102.1,557l65.8-66C146.4,469.9,162.9,442.2,162.9,442.2z
		 M-16.6,353.6c-4.7,0-8.6-3.8-8.6-8.6c0-4.8,3.8-8.6,8.6-8.6c4.7,0,8.6,3.8,8.6,8.6C-8,349.8-11.9,353.6-16.6,353.6z M11.3,400.6
		c-3.4-2.6-6.3-5.9-9.2-9.1c-1.6-1.8-1.4-4.2,0.4-5.9c9.1-8.8,18.2-17.6,27.3-26.3c1.9-1.8,4.6-1.7,6.6,0.2c2.6,2.5,5.2,5.1,7.4,7.9
		c6.3,7.9,2.3,19.8-7.5,22.2c-2.3,0.6-3.2,1.5-3.9,3.8c-1.4,5.8-7.1,9.7-13.5,10.3C16.3,402.7,13.4,402.2,11.3,400.6z M40.1,430.5
		c-2.6-1-3.6-3.5-2.5-6.7c1.7-4.9,3.4-9.7,5.1-14.5c0.3-0.8,0.2-1.8,0.2-2.7c-0.6-0.4-1.2-0.7-1.7-0.9c-2.8,3.2-5.5,6.5-8.5,9.5
		c-2.5,2.6-5.4,2.7-7.4,0.7c-2.2-2.2-1.9-4.9,0.9-7.5c8.4-8.2,16.9-16.3,25.4-24.4c3.3-3.1,5.4-3.1,8.5,0.1c1.9,1.9,3.8,3.8,5.6,5.8
		c4.4,4.9,5.1,11,2.3,16.5c-2.1,4.1-7.8,8.5-14.8,7.1c-1.5-0.3-2.1,0.2-2.5,1.6c-1.3,3.9-2.7,7.8-4.2,11.7
		C45.3,430.1,42.8,431.5,40.1,430.5z M75.6,457.9c-1.5,2.8-4,3.8-6.5,2.7c-2.5-1.2-3.4-3.8-2.1-6.6c0.8-1.9,1.8-3.7,2.6-5.6
		c0.3-0.3,0.5-0.7,0.8-1.1c-3.1-2.7-6.3-5.4-9.4-8.2c-1-0.9-1.8-1.3-3-0.6c-1.1,0.6-2.3,1-3.5,1.5c-3.4,1.4-6.2,0.6-7.3-2.1
		c-1.1-2.7,0.1-5.1,3.5-6.6c3.1-1.4,6.3-2.7,9.4-4.1c8.4-3.6,16.8-7.3,25.2-11c2.3-1,4.6-1.4,6.5,0.6s1.4,4.2,0.3,6.5
		c-5.4,11.2-10.7,22.4-16,33.6C75.9,457.2,75.8,457.6,75.6,457.9z M100.9,486.7c-1.7,1.7-3.7,2.2-5.9,1c-2.3-1.3-2.9-3.3-2.2-5.8
		c2-7.9,4-15.9,6-23.8c0.1-0.5,0.2-1,0.3-2.2c-3.8,3.6-7,6.8-10.3,9.9c-1.5,1.4-2.9,3-4.5,4.3c-2.2,1.8-4.7,1.7-6.6-0.1
		c-1.9-1.9-2-4.7,0.2-6.8c8.9-8.7,17.9-17.3,26.9-25.9c1.7-1.6,3.7-1.9,5.7-0.6c2.4,1.5,2.5,3.8,1.9,6.2c-1.8,7.4-3.7,14.8-5.6,22.3
		c-0.3,0.7-0.5,1.7-0.8,3.3c4.5-4.3,8.5-8.1,12.4-11.9c0.7-0.6,1.3-1.3,1.9-1.9c2.6-2.4,5.4-2.6,7.4-0.4c1.9,2.1,1.7,4.8-0.7,7.2
		c-6.4,6.2-12.9,12.4-19.3,18.6C105.4,482.3,103.1,484.5,100.9,486.7z M122.6,507.9c-7.8,0.2-14.1-4.9-19.5-11.6
		c-1.7-2.1-1.1-4.4,1.3-6.7c7.3-7.1,14.7-14.1,22-21.2c1.4-1.4,2.8-2.8,4.3-4.1c1.9-1.7,4.1-2.2,6.1-0.4
		c6.2,5.3,10.8,11.6,10.8,20.3C147.8,497.3,137.2,507.9,122.6,507.9z"/>
	<path class="st0" d="M186.7,435.8c-16.2,0-29.3,13.1-29.3,29.3c0,16.2,13.1,29.3,29.3,29.3c16.2,0,29.3-13.1,29.3-29.3
		C216,448.9,202.9,435.8,186.7,435.8z"/>
	<g>
		<g>
			<path class="st2" d="M127,461.5c2.4-2.4,2.6-5.1,0.7-7.2c-2-2.2-4.8-2-7.4,0.4c-0.6,0.6-1.2,1.3-1.9,1.9
				c-3.9,3.8-7.9,7.6-12.4,11.9c0.3-1.6,0.5-2.6,0.8-3.3c1.9-7.5,3.8-14.9,5.6-22.3c0.6-2.4,0.5-4.7-1.9-6.2c-2-1.3-4-1-5.7,0.6
				c-9,8.6-18,17.2-26.9,25.9c-2.2,2.1-2.1,4.9-0.2,6.8c1.9,1.8,4.4,1.9,6.6,0.1c1.6-1.3,3-2.9,4.5-4.3c3.3-3.1,6.5-6.3,10.3-9.9
				c-0.1,1.2-0.2,1.7-0.3,2.2c-2,7.9-4,15.9-6,23.8c-0.7,2.5-0.1,4.5,2.2,5.8c2.2,1.2,4.2,0.7,5.9-1c2.2-2.2,4.5-4.4,6.8-6.6
				C114.1,473.9,120.6,467.7,127,461.5z"/>
			<path class="st2" d="M32.4,393.4c0.7-2.3,1.6-3.2,3.9-3.8c9.8-2.4,13.8-14.3,7.5-22.2c-2.2-2.8-4.8-5.4-7.4-7.9
				c-2-1.9-4.7-2-6.6-0.2c-9.1,8.7-18.2,17.5-27.3,26.3c-1.8,1.7-2,4.1-0.4,5.9c2.9,3.2,5.8,6.5,9.2,9.1c2.1,1.6,5,2.1,7.6,3.1
				C25.3,403.1,31,399.2,32.4,393.4z M23.5,390.3c-0.4,1.3-2,2.7-3.3,3.1c-3.7,1-5.2-2.3-7.3-4.2c2.1-2.3,4.1-4.5,6.3-6.9
				C21.5,384.9,24.7,386.6,23.5,390.3z M26.7,376.3c2.1-2.3,4-4.6,6.1-6.9c2.2,2.4,5.4,4.1,4.3,7.7c-0.4,1.3-1.9,2.8-3.2,3.2
				C30,381.4,28.4,378.1,26.7,376.3z"/>
			<path class="st2" d="M136.8,463.9c-2-1.8-4.2-1.3-6.1,0.4c-1.5,1.3-2.9,2.7-4.3,4.1c-7.3,7.1-14.7,14.1-22,21.2
				c-2.4,2.3-3,4.6-1.3,6.7c5.4,6.7,11.7,11.8,19.5,11.6c14.6,0,25.2-10.6,25-23.7C147.6,475.5,143,469.2,136.8,463.9z M133.8,493.8
				c-5.5,5.7-14.3,5.7-20-0.1c6.8-6.5,13.4-12.8,19.9-19.2C139.1,479.6,139.1,488.3,133.8,493.8z"/>
			<path class="st2" d="M53.2,413.5c7,1.4,12.7-3,14.8-7.1c2.8-5.5,2.1-11.6-2.3-16.5c-1.8-2-3.7-3.9-5.6-5.8
				c-3.1-3.2-5.2-3.2-8.5-0.1c-8.5,8.1-17,16.2-25.4,24.4c-2.8,2.6-3.1,5.3-0.9,7.5c2,2,4.9,1.9,7.4-0.7c3-3,5.7-6.3,8.5-9.5
				c0.5,0.2,1.1,0.5,1.7,0.9c0,0.9,0.1,1.9-0.2,2.7c-1.7,4.8-3.4,9.6-5.1,14.5c-1.1,3.2-0.1,5.7,2.5,6.7c2.7,1,5.2-0.4,6.4-3.7
				c1.5-3.9,2.9-7.8,4.2-11.7C51.1,413.7,51.7,413.2,53.2,413.5z M49.3,399.8c2.1-2.2,4.1-4.4,6.2-6.7c2.3,2.3,5.4,3.9,4.4,7.5
				c-0.4,1.3-1.9,3-3.2,3.4C52.9,405.2,51.4,401.6,49.3,399.8z"/>
			<path class="st2" d="M91.8,416.8c-1.9-2-4.2-1.6-6.5-0.6c-8.4,3.7-16.8,7.4-25.2,11c-3.1,1.4-6.3,2.7-9.4,4.1
				c-3.4,1.5-4.6,3.9-3.5,6.6c1.1,2.7,3.9,3.5,7.3,2.1c1.2-0.5,2.4-0.9,3.5-1.5c1.2-0.7,2-0.3,3,0.6c3.1,2.8,6.3,5.5,9.4,8.2
				c-0.3,0.4-0.5,0.8-0.8,1.1c-0.8,1.9-1.8,3.7-2.6,5.6c-1.3,2.8-0.4,5.4,2.1,6.6c2.5,1.1,5,0.1,6.5-2.7c0.2-0.3,0.3-0.7,0.5-1
				c5.3-11.2,10.6-22.4,16-33.6C93.2,421,93.7,418.8,91.8,416.8z M74.4,438.7c-1.8-1.7-3.5-3.2-5.2-4.9c3-1.3,5.9-2.6,9.5-4.1
				C77,433.1,75.7,435.9,74.4,438.7z"/>
		</g>
	</g>
	<path id="XMLID_111_" class="st2" d="M198.8,460.4c2.1,0,4.2,0,6.5,0c0,3.2,0,6.1,0,9.4c-2.2,0-4.4,0-6.6,0
		c-0.1,0.2-0.3,0.5-0.4,0.7c1.7,1.4,3.5,2.7,5.2,4.1c-2.7,2.6-4.8,4.6-7.1,6.9c-1.3-1.2-2.8-2.7-4.9-4.6c0,2.7,0,4.7,0,6.9
		c-3.4,0-6.3,0-9.5,0c0-2.2,0-4.3,0-6.4c-0.2-0.1-0.4-0.3-0.6-0.4c-1.2,1.8-2.5,3.6-3.8,5.5c-3-3.1-5-5.3-7.4-7.8
		c1.5-1.2,3.1-2.6,4.8-4.1c-0.1-0.2-0.3-0.5-0.4-0.7c-2.1,0-4.2,0-6.5,0c0-3.2,0-6.2,0-9.4c2.1,0,4.2,0,7,0
		c-1.9-2.1-3.3-3.6-4.8-5.3c2.2-2.2,4.4-4.3,7-6.8c1.3,1.6,2.6,3.3,3.9,5c0.2-0.1,0.5-0.3,0.7-0.4c0-2.1,0-4.2,0-6.5
		c3.3,0,6.3,0,9.6,0c0,2.1,0,4.1,0,6.1c0.3,0.2,0.5,0.3,0.8,0.5c1.2-1.8,2.3-3.5,3.4-5.1c2.9,3,5,5.1,7.7,7.9
		c-1.3,1-3.1,2.3-4.9,3.7C198.5,459.9,198.6,460.1,198.8,460.4z"/>
</g>
</svg>
